<svg xmlns="http://www.w3.org/2000/svg" viewBox="0 0 1920 1080" style="enable-background:new 0 0 1920 1080" xml:space="preserve"><path style="fill:#132136;stroke:#fff;stroke-miterlimit:10" d="M0 0h1920v1080H0z"/><linearGradient id="a" gradientUnits="userSpaceOnUse" x1="955.309" y1="1057.214" x2="961.012" y2="954.564"><stop offset="0" style="stop-color:#fff"/><stop offset=".127" style="stop-color:#fbfdfe"/><stop offset="1" style="stop-color:#e0f1f2"/></linearGradient><path d="M1920 940.04V1080H0V865.55c28.63 5.7 101.48 26.3 124.22 91.01l1.89 5.38c14.09-9.91 105.12-67.59 196.14 26.66 0 0 67.13-181.16 236.62-80.05 0 0 58.75-70.21 151.05-19.66 0 0 33.56-82.85 115.79-39.32 0 0 38.6-5.62 58.74 19.66 0 0 82.23-28.09 93.98 47.75 0 0 68.8-10.7 90.61 39.58 0 0 30.21 8.16 21.82 27.82 0 0 77.2-32.3 99.02 0 0 0 73.84-53.36 125.87 22.47 0 0 99.01-71.62 176.21 40.73 0 0 70.48-51.96 125.86-12.64 0 0 48.67-61.79 125.86 2.81 0 0 43.63-47.75 77.2-26.69 0 0 40.28-37.91 75.52-33.7 0 0 5.35-23.13 23.6-37.32z" style="fill:url(#a)"/></svg>