<svg xmlns="http://www.w3.org/2000/svg" version="1.1" xmlns:xlink="http://www.w3.org/1999/xlink" xmlns:svgjs="http://svgjs.com/svgjs" width="920" height="560" preserveAspectRatio="none" viewBox="0 0 920 560"><g mask="url(&quot;#SvgjsMask1023&quot;)" fill="none"><rect width="920" height="560" x="0" y="0" fill="#0e2a47"></rect><path d="M83.78 48.62L148.74 86.12L148.74 161.12L83.78 198.62L18.83 161.12L18.83 86.12zM18.83 161.12L83.78 198.62L83.78 273.62L18.83 311.12L-46.12 273.62L-46.12 198.62zM83.78 273.62L148.74 311.12L148.74 386.12L83.78 423.62L18.83 386.12L18.83 311.12zM83.78 498.62L148.74 536.12L148.74 611.12L83.78 648.62L18.83 611.12L18.83 536.12zM148.74 -63.88L213.69 -26.38L213.69 48.62L148.74 86.12L83.78 48.62L83.78 -26.38zM213.69 48.62L278.64 86.12L278.64 161.12L213.69 198.62L148.74 161.12L148.74 86.12zM343.6 48.62L408.55 86.12L408.55 161.12L343.6 198.62L278.64 161.12L278.64 86.12zM408.55 -63.88L473.51 -26.38L473.51 48.62L408.55 86.12L343.6 48.62L343.6 -26.38zM473.51 48.62L538.46 86.12L538.46 161.12L473.51 198.62L408.55 161.12L408.55 86.12zM473.51 273.62L538.46 311.12L538.46 386.12L473.51 423.62L408.55 386.12L408.55 311.12zM408.55 386.12L473.51 423.62L473.51 498.62L408.55 536.12L343.6 498.62L343.6 423.62zM473.51 498.62L538.46 536.12L538.46 611.12L473.51 648.62L408.55 611.12L408.55 536.12zM538.46 -63.88L603.41 -26.38L603.41 48.62L538.46 86.12L473.51 48.62L473.51 -26.38zM603.41 48.62L668.37 86.12L668.37 161.12L603.41 198.62L538.46 161.12L538.46 86.12zM603.41 273.62L668.37 311.12L668.37 386.12L603.41 423.62L538.46 386.12L538.46 311.12zM603.41 498.62L668.37 536.12L668.37 611.12L603.41 648.62L538.46 611.12L538.46 536.12zM733.32 48.62L798.28 86.12L798.28 161.12L733.32 198.62L668.37 161.12L668.37 86.12zM668.37 161.12L733.32 198.62L733.32 273.62L668.37 311.12L603.41 273.62L603.41 198.62zM733.32 273.62L798.28 311.12L798.28 386.12L733.32 423.62L668.37 386.12L668.37 311.12zM733.32 498.62L798.28 536.12L798.28 611.12L733.32 648.62L668.37 611.12L668.37 536.12zM798.27 -63.88L863.23 -26.38L863.23 48.62L798.27 86.12L733.32 48.62L733.32 -26.38zM798.27 161.12L863.23 198.62L863.23 273.62L798.27 311.12L733.32 273.62L733.32 198.62zM798.27 386.12L863.23 423.62L863.23 498.62L798.27 536.12L733.32 498.62L733.32 423.62zM993.14 48.62L1058.09 86.12L1058.09 161.12L993.14 198.62L928.18 161.12L928.18 86.12zM993.14 498.62L1058.09 536.12L1058.09 611.12L993.14 648.62L928.18 611.12L928.18 536.12z" stroke="#03305d" stroke-width="2"></path><path d="M76.28 48.62 a7.5 7.5 0 1 0 15 0 a7.5 7.5 0 1 0 -15 0zM141.24 86.12 a7.5 7.5 0 1 0 15 0 a7.5 7.5 0 1 0 -15 0zM141.24 161.12 a7.5 7.5 0 1 0 15 0 a7.5 7.5 0 1 0 -15 0zM76.28 198.62 a7.5 7.5 0 1 0 15 0 a7.5 7.5 0 1 0 -15 0zM11.33 161.12 a7.5 7.5 0 1 0 15 0 a7.5 7.5 0 1 0 -15 0zM11.33 86.12 a7.5 7.5 0 1 0 15 0 a7.5 7.5 0 1 0 -15 0zM76.28 273.62 a7.5 7.5 0 1 0 15 0 a7.5 7.5 0 1 0 -15 0zM11.33 311.12 a7.5 7.5 0 1 0 15 0 a7.5 7.5 0 1 0 -15 0zM-53.62 273.62 a7.5 7.5 0 1 0 15 0 a7.5 7.5 0 1 0 -15 0zM-53.62 198.62 a7.5 7.5 0 1 0 15 0 a7.5 7.5 0 1 0 -15 0zM141.24 311.12 a7.5 7.5 0 1 0 15 0 a7.5 7.5 0 1 0 -15 0zM141.24 386.12 a7.5 7.5 0 1 0 15 0 a7.5 7.5 0 1 0 -15 0zM76.28 423.62 a7.5 7.5 0 1 0 15 0 a7.5 7.5 0 1 0 -15 0zM11.33 386.12 a7.5 7.5 0 1 0 15 0 a7.5 7.5 0 1 0 -15 0zM76.28 498.62 a7.5 7.5 0 1 0 15 0 a7.5 7.5 0 1 0 -15 0zM141.24 536.12 a7.5 7.5 0 1 0 15 0 a7.5 7.5 0 1 0 -15 0zM141.24 611.12 a7.5 7.5 0 1 0 15 0 a7.5 7.5 0 1 0 -15 0zM76.28 648.62 a7.5 7.5 0 1 0 15 0 a7.5 7.5 0 1 0 -15 0zM11.33 611.12 a7.5 7.5 0 1 0 15 0 a7.5 7.5 0 1 0 -15 0zM11.33 536.12 a7.5 7.5 0 1 0 15 0 a7.5 7.5 0 1 0 -15 0zM141.24 -63.88 a7.5 7.5 0 1 0 15 0 a7.5 7.5 0 1 0 -15 0zM206.19 -26.38 a7.5 7.5 0 1 0 15 0 a7.5 7.5 0 1 0 -15 0zM206.19 48.62 a7.5 7.5 0 1 0 15 0 a7.5 7.5 0 1 0 -15 0zM76.28 -26.38 a7.5 7.5 0 1 0 15 0 a7.5 7.5 0 1 0 -15 0zM271.14 86.12 a7.5 7.5 0 1 0 15 0 a7.5 7.5 0 1 0 -15 0zM271.14 161.12 a7.5 7.5 0 1 0 15 0 a7.5 7.5 0 1 0 -15 0zM206.19 198.62 a7.5 7.5 0 1 0 15 0 a7.5 7.5 0 1 0 -15 0zM336.1 48.62 a7.5 7.5 0 1 0 15 0 a7.5 7.5 0 1 0 -15 0zM401.05 86.12 a7.5 7.5 0 1 0 15 0 a7.5 7.5 0 1 0 -15 0zM401.05 161.12 a7.5 7.5 0 1 0 15 0 a7.5 7.5 0 1 0 -15 0zM336.1 198.62 a7.5 7.5 0 1 0 15 0 a7.5 7.5 0 1 0 -15 0zM401.05 -63.88 a7.5 7.5 0 1 0 15 0 a7.5 7.5 0 1 0 -15 0zM466.01 -26.38 a7.5 7.5 0 1 0 15 0 a7.5 7.5 0 1 0 -15 0zM466.01 48.62 a7.5 7.5 0 1 0 15 0 a7.5 7.5 0 1 0 -15 0zM336.1 -26.38 a7.5 7.5 0 1 0 15 0 a7.5 7.5 0 1 0 -15 0zM530.96 86.12 a7.5 7.5 0 1 0 15 0 a7.5 7.5 0 1 0 -15 0zM530.96 161.12 a7.5 7.5 0 1 0 15 0 a7.5 7.5 0 1 0 -15 0zM466.01 198.62 a7.5 7.5 0 1 0 15 0 a7.5 7.5 0 1 0 -15 0zM466.01 273.62 a7.5 7.5 0 1 0 15 0 a7.5 7.5 0 1 0 -15 0zM530.96 311.12 a7.5 7.5 0 1 0 15 0 a7.5 7.5 0 1 0 -15 0zM530.96 386.12 a7.5 7.5 0 1 0 15 0 a7.5 7.5 0 1 0 -15 0zM466.01 423.62 a7.5 7.5 0 1 0 15 0 a7.5 7.5 0 1 0 -15 0zM401.05 386.12 a7.5 7.5 0 1 0 15 0 a7.5 7.5 0 1 0 -15 0zM401.05 311.12 a7.5 7.5 0 1 0 15 0 a7.5 7.5 0 1 0 -15 0zM466.01 498.62 a7.5 7.5 0 1 0 15 0 a7.5 7.5 0 1 0 -15 0zM401.05 536.12 a7.5 7.5 0 1 0 15 0 a7.5 7.5 0 1 0 -15 0zM336.1 498.62 a7.5 7.5 0 1 0 15 0 a7.5 7.5 0 1 0 -15 0zM336.1 423.62 a7.5 7.5 0 1 0 15 0 a7.5 7.5 0 1 0 -15 0zM530.96 536.12 a7.5 7.5 0 1 0 15 0 a7.5 7.5 0 1 0 -15 0zM530.96 611.12 a7.5 7.5 0 1 0 15 0 a7.5 7.5 0 1 0 -15 0zM466.01 648.62 a7.5 7.5 0 1 0 15 0 a7.5 7.5 0 1 0 -15 0zM401.05 611.12 a7.5 7.5 0 1 0 15 0 a7.5 7.5 0 1 0 -15 0zM530.96 -63.88 a7.5 7.5 0 1 0 15 0 a7.5 7.5 0 1 0 -15 0zM595.91 -26.38 a7.5 7.5 0 1 0 15 0 a7.5 7.5 0 1 0 -15 0zM595.91 48.62 a7.5 7.5 0 1 0 15 0 a7.5 7.5 0 1 0 -15 0zM660.87 86.12 a7.5 7.5 0 1 0 15 0 a7.5 7.5 0 1 0 -15 0zM660.87 161.12 a7.5 7.5 0 1 0 15 0 a7.5 7.5 0 1 0 -15 0zM595.91 198.62 a7.5 7.5 0 1 0 15 0 a7.5 7.5 0 1 0 -15 0zM595.91 273.62 a7.5 7.5 0 1 0 15 0 a7.5 7.5 0 1 0 -15 0zM660.87 311.12 a7.5 7.5 0 1 0 15 0 a7.5 7.5 0 1 0 -15 0zM660.87 386.12 a7.5 7.5 0 1 0 15 0 a7.5 7.5 0 1 0 -15 0zM595.91 423.62 a7.5 7.5 0 1 0 15 0 a7.5 7.5 0 1 0 -15 0zM595.91 498.62 a7.5 7.5 0 1 0 15 0 a7.5 7.5 0 1 0 -15 0zM660.87 536.12 a7.5 7.5 0 1 0 15 0 a7.5 7.5 0 1 0 -15 0zM660.87 611.12 a7.5 7.5 0 1 0 15 0 a7.5 7.5 0 1 0 -15 0zM595.91 648.62 a7.5 7.5 0 1 0 15 0 a7.5 7.5 0 1 0 -15 0zM725.82 48.62 a7.5 7.5 0 1 0 15 0 a7.5 7.5 0 1 0 -15 0zM790.78 86.12 a7.5 7.5 0 1 0 15 0 a7.5 7.5 0 1 0 -15 0zM790.78 161.12 a7.5 7.5 0 1 0 15 0 a7.5 7.5 0 1 0 -15 0zM725.82 198.62 a7.5 7.5 0 1 0 15 0 a7.5 7.5 0 1 0 -15 0zM725.82 273.62 a7.5 7.5 0 1 0 15 0 a7.5 7.5 0 1 0 -15 0zM790.78 311.12 a7.5 7.5 0 1 0 15 0 a7.5 7.5 0 1 0 -15 0zM790.78 386.12 a7.5 7.5 0 1 0 15 0 a7.5 7.5 0 1 0 -15 0zM725.82 423.62 a7.5 7.5 0 1 0 15 0 a7.5 7.5 0 1 0 -15 0zM725.82 498.62 a7.5 7.5 0 1 0 15 0 a7.5 7.5 0 1 0 -15 0zM790.78 536.12 a7.5 7.5 0 1 0 15 0 a7.5 7.5 0 1 0 -15 0zM790.78 611.12 a7.5 7.5 0 1 0 15 0 a7.5 7.5 0 1 0 -15 0zM725.82 648.62 a7.5 7.5 0 1 0 15 0 a7.5 7.5 0 1 0 -15 0zM790.77 -63.88 a7.5 7.5 0 1 0 15 0 a7.5 7.5 0 1 0 -15 0zM855.73 -26.38 a7.5 7.5 0 1 0 15 0 a7.5 7.5 0 1 0 -15 0zM855.73 48.62 a7.5 7.5 0 1 0 15 0 a7.5 7.5 0 1 0 -15 0zM790.77 86.12 a7.5 7.5 0 1 0 15 0 a7.5 7.5 0 1 0 -15 0zM725.82 -26.38 a7.5 7.5 0 1 0 15 0 a7.5 7.5 0 1 0 -15 0zM790.77 161.12 a7.5 7.5 0 1 0 15 0 a7.5 7.5 0 1 0 -15 0zM855.73 198.62 a7.5 7.5 0 1 0 15 0 a7.5 7.5 0 1 0 -15 0zM855.73 273.62 a7.5 7.5 0 1 0 15 0 a7.5 7.5 0 1 0 -15 0zM790.77 311.12 a7.5 7.5 0 1 0 15 0 a7.5 7.5 0 1 0 -15 0zM790.77 386.12 a7.5 7.5 0 1 0 15 0 a7.5 7.5 0 1 0 -15 0zM855.73 423.62 a7.5 7.5 0 1 0 15 0 a7.5 7.5 0 1 0 -15 0zM855.73 498.62 a7.5 7.5 0 1 0 15 0 a7.5 7.5 0 1 0 -15 0zM790.77 536.12 a7.5 7.5 0 1 0 15 0 a7.5 7.5 0 1 0 -15 0zM985.64 48.62 a7.5 7.5 0 1 0 15 0 a7.5 7.5 0 1 0 -15 0zM1050.59 86.12 a7.5 7.5 0 1 0 15 0 a7.5 7.5 0 1 0 -15 0zM1050.59 161.12 a7.5 7.5 0 1 0 15 0 a7.5 7.5 0 1 0 -15 0zM985.64 198.62 a7.5 7.5 0 1 0 15 0 a7.5 7.5 0 1 0 -15 0zM920.68 161.12 a7.5 7.5 0 1 0 15 0 a7.5 7.5 0 1 0 -15 0zM920.68 86.12 a7.5 7.5 0 1 0 15 0 a7.5 7.5 0 1 0 -15 0zM985.64 498.62 a7.5 7.5 0 1 0 15 0 a7.5 7.5 0 1 0 -15 0zM1050.59 536.12 a7.5 7.5 0 1 0 15 0 a7.5 7.5 0 1 0 -15 0zM1050.59 611.12 a7.5 7.5 0 1 0 15 0 a7.5 7.5 0 1 0 -15 0zM985.64 648.62 a7.5 7.5 0 1 0 15 0 a7.5 7.5 0 1 0 -15 0zM920.68 611.12 a7.5 7.5 0 1 0 15 0 a7.5 7.5 0 1 0 -15 0zM920.68 536.12 a7.5 7.5 0 1 0 15 0 a7.5 7.5 0 1 0 -15 0z" fill="#03305d"></path><path d="M146.71 367.84L190.01 392.84L190.01 442.84L146.71 467.84L103.41 442.84L103.41 392.84zM146.71 517.84L190.01 542.84L190.01 592.84L146.71 617.84L103.41 592.84L103.41 542.84zM319.92 67.84L363.22 92.84L363.22 142.84L319.92 167.84L276.62 142.84L276.62 92.84zM276.62 142.84L319.92 167.84L319.92 217.84L276.62 242.84L233.31 217.84L233.31 167.84zM363.22 292.84L406.52 317.84L406.52 367.84L363.22 392.84L319.92 367.84L319.92 317.84zM363.22 442.84L406.52 467.84L406.52 517.84L363.22 542.84L319.92 517.84L319.92 467.84zM536.43 -7.16L579.73 17.84L579.73 67.84L536.43 92.84L493.13 67.84L493.13 17.84zM536.43 142.84L579.73 167.84L579.73 217.84L536.43 242.84L493.13 217.84L493.13 167.84zM536.43 442.84L579.73 467.84L579.73 517.84L536.43 542.84L493.13 517.84L493.13 467.84zM579.73 517.84L623.03 542.84L623.03 592.84L579.73 617.84L536.43 592.84L536.43 542.84zM666.34 217.84L709.64 242.84L709.64 292.84L666.34 317.84L623.03 292.84L623.03 242.84zM623.03 292.84L666.34 317.84L666.34 367.84L623.03 392.84L579.73 367.84L579.73 317.84zM666.34 367.84L709.64 392.84L709.64 442.84L666.34 467.84L623.03 442.84L623.03 392.84zM752.94 67.84L796.25 92.84L796.25 142.84L752.94 167.84L709.64 142.84L709.64 92.84zM709.64 142.84L752.94 167.84L752.94 217.84L709.64 242.84L666.34 217.84L666.34 167.84zM752.94 517.84L796.25 542.84L796.25 592.84L752.94 617.84L709.64 592.84L709.64 542.84zM796.25 -7.16L839.55 17.84L839.55 67.84L796.25 92.84L752.94 67.84L752.94 17.84zM839.55 67.84L882.85 92.84L882.85 142.84L839.55 167.84L796.25 142.84L796.25 92.84zM796.25 292.84L839.55 317.84L839.55 367.84L796.25 392.84L752.94 367.84L752.94 317.84zM796.25 442.84L839.55 467.84L839.55 517.84L796.25 542.84L752.94 517.84L752.94 467.84zM882.85 -7.16L926.15 17.84L926.15 67.84L882.85 92.84L839.55 67.84L839.55 17.84z" stroke="rgba(6, 80, 156, 0.93)" stroke-width="2"></path></g><defs><mask id="SvgjsMask1023"><rect width="920" height="560" fill="#ffffff"></rect></mask></defs></svg>