<?xml version="1.0" encoding="iso-8859-1"?>
<!-- Uploaded to: SVG Repo, www.svgrepo.com, Generator: SVG Repo Mixer Tools -->
<svg version="1.1" id="Layer_1" xmlns="http://www.w3.org/2000/svg" xmlns:xlink="http://www.w3.org/1999/xlink" 
	 viewBox="0 0 392.663 392.663" xml:space="preserve">
<g>
	<rect x="76.444" y="205.382" style="fill:#56ACE0;" width="32.776" height="106.408"/>
	<rect x="283.378" y="205.382" style="fill:#56ACE0;" width="32.776" height="106.408"/>
</g>
<g>
	<path style="fill:#FFC10D;" d="M338.004,224.453v68.202c18.166-0.711,32.776-15.774,32.776-34.133
		C370.78,240.226,356.17,225.164,338.004,224.453z"/>
	<path style="fill:#FFC10D;" d="M21.818,258.521c0,18.36,14.61,33.358,32.776,34.133v-68.202
		C36.428,225.164,21.818,240.226,21.818,258.521z"/>
	<path style="fill:#FFC10D;" d="M345.374,21.851H184.275v97.681h13.446c6.012,0,10.925,4.848,10.925,10.925v23.402l31.095-31.095
		c2.004-2.004,4.784-3.168,7.758-3.168h97.875V21.851L345.374,21.851z"/>
</g>
<g>
	<path style="fill:#194F82;" d="M373.236,216.436c1.293-12.606-0.323-68.396-6.206-85.721c0-0.065,0-0.129,0-0.259V10.925
		C367.095,4.913,362.246,0,356.234,0H173.35c-0.905,0-1.745,0.129-2.651,0.388C84.719,12.8,19.879,87.725,19.879,174.869v40.986
		c-12.154,10.279-19.846,25.6-19.846,42.667c0,30.384,24.372,55.143,54.562,55.855v8.21c0,6.012,4.848,10.925,10.925,10.925h54.497
		c6.012,0,10.925-4.848,10.925-10.925V194.457c0-6.012-4.848-10.925-10.925-10.925H65.455c-6.012,0-10.925,4.848-10.925,10.925v8.21
		c-4.461,0.065-8.727,0.776-12.929,1.875v-29.673c0-72.469,51.071-135.24,120.695-150.82v106.343
		c0,6.012,4.848,10.925,10.925,10.925h13.446v38.853c0,4.396,2.651,8.404,6.723,10.02c3.943,1.745,8.598,0.776,11.895-2.392
		l46.545-46.545h94.966c3.168,16.549,3.879,45.77,4.008,63.224c-4.202-1.099-8.404-1.745-12.929-1.875v-8.21
		c0-6.012-4.849-10.925-10.925-10.925h-54.562c-6.012,0-10.925,4.848-10.925,10.925v128.194c0,6.012,4.848,10.925,10.925,10.925
		h15.063c-4.978,21.269-24.048,37.236-46.804,37.236h-44.347c-6.012,0-10.925,4.848-10.925,10.925c0,6.012,4.848,10.99,10.925,10.99
		h44.541c34.844,0,63.677-25.665,68.913-59.022h17.39c6.012,0,10.925-4.848,10.925-10.925v-8.21
		c30.19-0.776,54.562-25.471,54.562-55.855C392.566,241.778,385.067,226.65,373.236,216.436z M76.444,205.382h32.776V311.79H76.444
		C76.444,311.79,76.444,205.382,76.444,205.382z M54.594,224.388v68.331c-18.23-0.711-32.776-15.774-32.776-34.133
		C21.818,240.162,36.428,225.164,54.594,224.388z M345.374,119.531h-97.939c-2.909,0-5.689,1.164-7.758,3.232l-31.095,31.095
		v-23.337c0-6.012-4.848-10.925-10.925-10.925H184.21V21.851h161.034v97.681H345.374z M316.154,311.79h-32.776V205.382h32.776
		V311.79z M338.004,292.719v-68.267c18.166,0.711,32.776,15.774,32.776,34.133C370.78,276.945,356.17,292.008,338.004,292.719z"/>
	<path style="fill:#194F82;" d="M220.735,79.127h21.204c6.012,0,10.925-4.848,10.925-10.925s-4.848-10.925-10.925-10.925h-21.204
		c-6.012,0-10.925,4.848-10.925,10.925S214.659,79.127,220.735,79.127z"/>
	<path style="fill:#194F82;" d="M287.709,79.127h21.204c6.012,0,10.925-4.848,10.925-10.925s-4.848-10.925-10.925-10.925h-21.204
		c-6.012,0-10.925,4.848-10.925,10.925S281.697,79.127,287.709,79.127z"/>
</g>
</svg>