<svg xmlns="http://www.w3.org/2000/svg" viewBox="0 0 1125 2436" style="enable-background:new 0 0 1125 2436" xml:space="preserve"><path style="fill:#0f2137" d="M0 0h1125v2437H0z"/><linearGradient id="a" gradientUnits="userSpaceOnUse" x1="565.531" y1="2374.564" x2="538.504" y2="1093.508"><stop offset="0" style="stop-color:#fff"/><stop offset="1" style="stop-color:#4bd1ef;stop-opacity:.1"/></linearGradient><path d="M1124.5 2025.3c-57.47-19.2-75.47 40.2-75.47 40.2-80.96-41-145.94 14-145.94 14-3-119-156.67-30-156.67-30-15.74-54-78.22-70-78.22-70-107.95-43-137.9 70-137.9 70-67.93-54-126.98 0-126.98 0-77.97-114-126.94-13-126.94-13-23.99-78-134.94-36-134.94-36 11-17-42.98-21-42.98-21-34.99-73-98.46-37.99-98.46-37.99l.5 494.99H1125l-.5-411.2z" style="fill:url(#a)"/></svg>