<?xml version="1.0" encoding="iso-8859-1"?>
<!-- Uploaded to: SVG Repo, www.svgrepo.com, Generator: SVG Repo Mixer Tools -->
<svg version="1.1" id="Layer_1" xmlns="http://www.w3.org/2000/svg" xmlns:xlink="http://www.w3.org/1999/xlink" 
	 viewBox="0 0 392.508 392.508" xml:space="preserve">
<polygon style="fill:#FFC10D;" points="46.391,276.848 25.639,346.602 366.908,346.602 346.156,276.848 "/>
<rect x="49.558" y="45.931" style="fill:#FFFFFF;" width="293.43" height="209.131"/>
<path style="fill:#194F82;" d="M364.775,263.143V35.006c0-6.012-4.848-10.925-10.925-10.925H38.698
	c-6.012,0-10.925,4.848-10.925,10.925v228.008l-27.281,91.41c-2.78,9.956,6.982,14.481,10.408,13.964h370.618
	c0.065,0,0.065,0,0.065,0c6.012,0,10.925-4.848,10.925-10.925C392.572,355.846,364.775,263.143,364.775,263.143z M49.558,45.931
	h293.43v209.131H49.558V45.931z M25.639,346.602l20.881-69.754h299.636l20.816,69.754H25.639z"/>
<path style="fill:#56ACE0;" d="M310.213,67.782H82.269c-6.012,0-10.925,4.848-10.925,10.925v15.386h34.521
	c6.012,0,10.925,4.848,10.925,10.925c0,6.077-4.848,10.925-10.925,10.925H71.344v18.618h22.82c6.012,0,10.925,4.848,10.925,10.925
	c0,6.012-4.848,10.925-10.925,10.925h-22.82v98.78h249.794V78.707C321.074,72.695,316.225,67.782,310.213,67.782z"/>
<g>
	<path style="fill:#FFC10D;" d="M111.166,195.911c-5.236,0-9.503,4.267-9.503,9.503c0,5.236,4.267,9.503,9.503,9.503
		s9.503-4.267,9.503-9.503C120.734,200.178,116.403,195.911,111.166,195.911z"/>
	<path style="fill:#FFC10D;" d="M167.086,122.796c-5.236,0-9.503,4.267-9.503,9.503c0,5.236,4.267,9.503,9.503,9.503
		s9.503-4.267,9.503-9.503C176.589,127.127,172.322,122.796,167.086,122.796z"/>
	<path style="fill:#FFC10D;" d="M240.459,182.4c-5.236,0-9.503,4.267-9.503,9.503c0,5.236,4.267,9.503,9.503,9.503
		c5.236,0,9.503-4.267,9.503-9.503C249.962,186.666,245.696,182.4,240.459,182.4z"/>
	<path style="fill:#FFC10D;" d="M281.316,104.953c-5.236,0-9.503,4.267-9.503,9.503s4.267,9.503,9.503,9.503
		c5.236,0,9.503-4.267,9.503-9.503S286.552,104.953,281.316,104.953z"/>
</g>
<g>
	<path style="fill:#194F82;" d="M281.316,83.167c-17.325,0-31.354,14.093-31.354,31.354c0,8.016,3.038,15.321,8.016,20.881
		l-13.446,25.471c-1.293-0.129-2.715-0.323-4.073-0.323c-5.818,0-11.184,1.616-15.903,4.396l-27.733-22.562
		c1.099-3.168,1.681-6.465,1.681-10.02c0-17.325-14.093-31.354-31.354-31.354c-17.325,0-31.354,14.093-31.354,31.354
		c0,6.077,1.745,11.83,4.848,16.679l-20.234,26.376c-2.909-0.905-6.012-1.422-9.18-1.422c-17.325,0-31.354,14.093-31.354,31.354
		s14.093,31.354,31.354,31.354s31.354-14.093,31.354-31.354c0-6.077-1.745-11.83-4.848-16.679l20.234-26.44
		c2.909,0.905,6.012,1.422,9.18,1.422c5.818,0,11.184-1.616,15.903-4.396l27.733,22.562c-1.099,3.168-1.681,6.465-1.681,10.02
		c0,17.325,14.093,31.354,31.289,31.354c17.325,0,31.354-14.093,31.354-31.354c0-8.016-3.038-15.321-8.016-20.881l13.446-25.471
		c1.293,0.129,2.715,0.323,4.073,0.323c17.325,0,31.354-14.093,31.354-31.354S298.512,83.167,281.316,83.167z M111.166,214.982
		c-5.236,0-9.503-4.267-9.503-9.503c0-5.236,4.267-9.503,9.503-9.503s9.503,4.267,9.503,9.503
		C120.734,210.65,116.403,214.982,111.166,214.982z M167.086,141.931c-5.236,0-9.503-4.267-9.503-9.503
		c0-5.236,4.267-9.503,9.503-9.503s9.503,4.267,9.503,9.503C176.589,137.664,172.322,141.931,167.086,141.931z M281.316,124.024
		c-5.236,0-9.503-4.267-9.503-9.503s4.267-9.503,9.503-9.503c5.236,0,9.503,4.267,9.503,9.503
		C290.819,119.693,286.552,124.024,281.316,124.024z M240.459,201.47c-5.236,0-9.503-4.267-9.503-9.503
		c0-5.236,4.267-9.503,9.503-9.503c5.236,0,9.503,4.267,9.503,9.503C249.962,197.139,245.696,201.47,240.459,201.47z"/>
	<path style="fill:#194F82;" d="M225.074,310.917h-57.665c-6.012,0-10.925,4.849-10.925,10.925c0,6.012,4.848,10.925,10.925,10.925
		h57.665c6.012,0,10.925-4.848,10.925-10.925C235.934,315.765,231.086,310.917,225.074,310.917z"/>
</g>
</svg>