<?xml version="1.0" encoding="iso-8859-1"?>
<!-- Uploaded to: SVG Repo, www.svgrepo.com, Generator: SVG Repo Mixer Tools -->
<svg version="1.1" id="Layer_1" xmlns="http://www.w3.org/2000/svg" xmlns:xlink="http://www.w3.org/1999/xlink" 
	 viewBox="0 0 512 512" xml:space="preserve">
<path d="M355,512H157c-35.2,0-64-28.8-64-64V64c0-35.2,28.8-64,64-64h198c35.2,0,64,28.8,64,64v384C419,483.2,390.2,512,355,512z"/>
<rect x="118" y="60.416" style="fill:#FFFFFF;" width="280" height="376.96"/>
<g>
	<circle style="fill:#CCCCCC;" cx="256" cy="30.176" r="12"/>
	<path style="fill:#CCCCCC;" d="M283.128,488.272h-54.264c-7.496,0-13.568-6.064-13.568-13.568c0-7.496,6.064-13.568,13.568-13.568
		h54.264c7.496,0,13.568,6.064,13.568,13.568C296.696,482.208,290.632,488.272,283.128,488.272z"/>
</g>
<g>
	<rect x="151.216" y="350.296" style="fill:#FF583E;" width="209.6" height="8"/>
	<rect x="174.472" y="377.2" style="fill:#FF583E;" width="163.064" height="8"/>
</g>
<rect x="160" y="112.56" style="fill:#FFD67F;" width="192" height="192"/>
<path style="fill:#FFFFFF;" d="M311.928,186.832v80.72l-111.856,0.088v-80.808"/>
<rect x="186.88" y="263.312" width="138.28" height="8.648"/>
<rect x="238.568" y="223.312" width="34.864" height="40"/>
<path style="fill:#FF583E;" d="M325.168,171.112l-22.112-21.968h-47.168h-5.872H208.92l-22.104,21.968v20.912
	c0,9.512,7.744,17.224,17.296,17.224s17.296-7.712,17.296-17.224c0,9.512,7.744,17.224,17.296,17.224S256,201.536,256,192.024
	c0,9.512,7.744,17.224,17.296,17.224s17.296-7.712,17.296-17.224h0.008c0,9.512,7.744,17.224,17.296,17.224
	s17.296-7.712,17.296-17.224v-20.912H325.168z"/>
</svg>