<?xml version="1.0" encoding="UTF-8"?>
<!DOCTYPE svg PUBLIC "-//W3C//DTD SVG 1.1//EN" "http://www.w3.org/Graphics/SVG/1.1/DTD/svg11.dtd">
<!-- Creator: CorelDRAW 2018 (64 Bit Versão de avaliação) -->
<svg xmlns="http://www.w3.org/2000/svg" xml:space="preserve" width="8.128mm" height="1.7532mm" version="1.1" style="shape-rendering:geometricPrecision; text-rendering:geometricPrecision; image-rendering:optimizeQuality; fill-rule:evenodd; clip-rule:evenodd"
viewBox="0 0 818.46 176.54"
 xmlns:xlink="http://www.w3.org/1999/xlink">
 <defs>
  <style type="text/css">
   <![CDATA[
    .fil0 {fill:#FEFEFE;fill-rule:nonzero}
   ]]>
  </style>
 </defs>
 <g id="Camada_x0020_1">
  <metadata id="CorelCorpID_0Corel-Layer"/>
  <g id="_2103641218992">
   <path class="fil0" d="M133.4 77.23c0,9.38 -2.83,17.38 -8.47,24.05 -6.09,6.92 -13.77,10.39 -23.04,10.39l-96.47 0 0 -26.07 96.47 0c3.63,0 5.44,-2.79 5.44,-8.37 0,-5.58 -1.81,-8.36 -5.44,-8.36l-70.18 0c-9.27,0 -16.95,-3.48 -23.03,-10.43 -5.79,-6.52 -8.69,-14.48 -8.69,-23.9 0,-9.42 2.97,-17.53 8.9,-24.34 5.94,-6.81 13.54,-10.21 22.82,-10.21l96.47 0 0 26.07 -96.68 0c-3.63,0 -5.44,2.83 -5.44,8.48 0,5.5 1.81,8.25 5.44,8.25l70.32 0c9.3,0 16.99,3.48 23.11,10.4 5.64,6.63 8.47,14.66 8.47,24.04zm150.78 -39.43c0,10 -2.75,18.54 -8.25,25.64 -5.94,7.97 -13.77,11.95 -23.47,11.95l-82.13 0 0 36.28 -26.07 0 0 -111.67 108.2 0c9.71,0 17.53,3.99 23.47,11.95 5.5,7.24 8.25,15.86 8.25,25.85zm-26.07 0c0,-7.82 -1.88,-11.73 -5.65,-11.73l-82.13 0 0 23.25 82.13 0c3.77,0 5.65,-3.85 5.65,-11.52zm174.03 73.87l-26.07 0 0 -35.41 -68.65 0 0 -26.07 68.65 0 0 -15.64c0,-5.65 -1.88,-8.48 -5.65,-8.48l-73.87 0c-3.63,0 -5.43,2.83 -5.43,8.44l0 77.16 -26.08 0 0 -77.2c0,-9.37 2.94,-17.48 8.8,-24.3 5.87,-6.77 13.43,-10.17 22.71,-10.17l73.87 0c9.42,0 17.06,3.4 22.93,10.17 5.86,6.82 8.79,14.92 8.79,24.3l0 77.2zm133.85 0l-86.48 0c-10.14,0 -18.76,-3.36 -25.86,-10.07 -7.09,-6.74 -10.64,-15.16 -10.64,-25.27l0 -40.98c0,-10.11 3.55,-18.54 10.64,-25.27 7.1,-6.71 15.72,-10.07 25.86,-10.07l86.48 0 0 26.07 -86.48 0c-6.95,0 -10.43,3.11 -10.43,9.3l0 40.92c0,6.19 3.48,9.3 10.43,9.3l86.48 0 0 26.07zm130.14 -85.6l-93.2 0 0 16.73 87.12 0 0 26.08 -87.12 0 0 16.73 92.99 0 0 26.07 -119.06 0 0 -111.67 119.27 0 0 26.07zm122.33 -26.07l-0.43 25.6 -64.09 86.08 -35.2 0 66.7 -85.6 -84.51 0 0 -26.07 117.54 0z"/>
   <path class="fil0" d="M532.36 161.6c0,4.27 -1.48,7.84 -4.45,10.68 -2.97,2.84 -6.61,4.26 -10.89,4.26l-36.47 0 0 -29.77 11.03 0 0 18.74 25.52 0c2.84,0 4.25,-1.31 4.25,-3.93l0 -17.3c0,-2.62 -1.41,-3.94 -4.25,-3.94l-36.54 0 0 -11.03 36.47 0c4.28,0 7.91,1.43 10.89,4.26 2.97,2.85 4.45,6.41 4.45,10.68l0 17.33zm15.62 14.94l-11.03 0 0 -47.22 11.03 0 0 47.22zm56.58 0l-36.55 0c-4.29,0 -7.93,-1.42 -10.94,-4.26 -3,-2.84 -4.5,-6.41 -4.5,-10.68l0 -17.33c0,-4.27 1.5,-7.83 4.5,-10.68 3,-2.83 6.65,-4.26 10.94,-4.26l36.55 0 0 11.03 -36.55 0c-2.94,0 -4.41,1.32 -4.41,3.94l0 17.3c0,2.62 1.47,3.93 4.41,3.93l25.54 0 0 -7.07 -14.97 0 0 -11.03 25.99 0 0 29.12zm15.62 0l-11.02 0 0 -47.22 11.02 0 0 47.22zm56.95 -36.19l-21.31 0 0 36.19 -11.03 0 0 -36.19 -21.31 0 0 -11.03 53.64 0 0 11.03zm62.56 36.19l-11.03 0 0 -14.97 -29.03 0 0 -11.03 29.03 0 0 -6.61c0,-2.4 -0.8,-3.58 -2.39,-3.58l-31.24 0c-1.53,0 -2.3,1.19 -2.3,3.56l0 32.63 -11.03 0 0 -32.64c0,-3.97 1.24,-7.4 3.73,-10.28 2.48,-2.86 5.68,-4.3 9.6,-4.3l31.24 0c3.98,0 7.21,1.44 9.69,4.3 2.49,2.88 3.73,6.31 3.73,10.28l0 32.64zm51.9 0l-47.31 0 0 -47.22 11.03 0 0 36.19 36.28 0 0 11.03z"/>
  </g>
 </g>
</svg>
