<?xml version="1.0" encoding="UTF-8"?>
<!DOCTYPE svg PUBLIC "-//W3C//DTD SVG 1.1//EN" "http://www.w3.org/Graphics/SVG/1.1/DTD/svg11.dtd">
<!-- Creator: CorelDRAW 2018 (64 Bit Versão de avaliação) -->
<svg xmlns="http://www.w3.org/2000/svg" xml:space="preserve" width="12.192mm" height="2.6298mm" version="1.1" style="shape-rendering:geometricPrecision; text-rendering:geometricPrecision; image-rendering:optimizeQuality; fill-rule:evenodd; clip-rule:evenodd"
viewBox="0 0 1224.85 264.2"
 xmlns:xlink="http://www.w3.org/1999/xlink">
 <defs>
  <style type="text/css">
   <![CDATA[
    .fil0 {fill:#FEFEFE;fill-rule:nonzero}
   ]]>
  </style>
 </defs>
 <g id="Camada_x0020_1">
  <metadata id="CorelCorpID_0Corel-Layer"/>
  <g id="_2103859627440">
   <path class="fil0" d="M199.64 115.58c0,14.03 -4.23,26.01 -12.68,35.99 -9.1,10.35 -20.59,15.55 -34.47,15.55l-144.37 0 0 -39.02 144.37 0c5.43,0 8.13,-4.17 8.13,-12.52 0,-8.34 -2.7,-12.52 -8.13,-12.52l-105.02 0c-13.87,0 -25.36,-5.2 -34.47,-15.6 -8.67,-9.75 -13,-21.68 -13,-35.76 0,-14.09 4.44,-26.23 13.33,-36.42 8.88,-10.19 20.26,-15.28 34.14,-15.28l144.37 0 0 39.02 -144.69 0c-5.43,0 -8.13,4.22 -8.13,12.68 0,8.24 2.7,12.36 8.13,12.36l105.24 0c13.93,0 25.42,5.2 34.58,15.55 8.45,9.92 12.68,21.94 12.68,35.98zm225.66 -59.01c0,14.96 -4.12,27.75 -12.36,38.37 -8.89,11.92 -20.59,17.88 -35.12,17.88l-122.91 0 0 54.3 -39.01 0 0 -167.12 161.92 0c14.53,0 26.23,5.96 35.12,17.88 8.24,10.84 12.36,23.74 12.36,38.69zm-39.02 0c0,-11.7 -2.82,-17.55 -8.46,-17.55l-122.91 0 0 34.79 122.91 0c5.64,0 8.46,-5.75 8.46,-17.24zm260.45 110.55l-39.02 0 0 -52.99 -102.75 0 0 -39.02 102.75 0 0 -23.41c0,-8.46 -2.82,-12.68 -8.46,-12.68l-110.55 0c-5.41,0 -8.13,4.22 -8.13,12.62l0 115.48 -39.02 0 0 -115.53c0,-14.03 4.39,-26.17 13.17,-36.36 8.78,-10.14 20.1,-15.23 33.98,-15.23l110.55 0c14.09,0 25.53,5.09 34.31,15.23 8.78,10.19 13.17,22.32 13.17,36.36l0 115.53zm200.29 0l-129.42 0c-15.17,0 -28.07,-5.04 -38.69,-15.07 -10.63,-10.08 -15.93,-22.7 -15.93,-37.82l0 -61.34c0,-15.11 5.3,-27.74 15.93,-37.82 10.62,-10.02 23.52,-15.06 38.69,-15.06l129.42 0 0 39.02 -129.42 0c-10.41,0 -15.6,4.65 -15.6,13.92l0 61.23c0,9.26 5.19,13.92 15.6,13.92l129.42 0 0 39.02zm194.76 -128.1l-139.49 0 0 25.04 130.39 0 0 39.01 -130.39 0 0 25.04 139.17 0 0 39.02 -178.18 0 0 -167.12 178.5 0 0 39.02zm183.06 -39.02l-0.65 38.32 -95.92 128.8 -52.67 0 99.82 -128.1 -126.48 0 0 -39.02 175.91 0z"/>
   <path class="fil0" d="M796.69 241.83c0,6.39 -2.22,11.73 -6.66,15.99 -4.45,4.24 -9.88,6.37 -16.3,6.37l-54.57 0 0 -44.54 16.5 0 0 28.04 38.19 0c4.24,0 6.35,-1.97 6.35,-5.89l0 -25.89c0,-3.92 -2.11,-5.89 -6.35,-5.89l-54.68 0 0 -16.5 54.57 0c6.42,0 11.84,2.13 16.3,6.37 4.44,4.26 6.66,9.59 6.66,15.99l0 25.93zm23.38 22.36l-16.51 0 0 -70.66 16.51 0 0 70.66zm84.68 0l-54.71 0c-6.42,0 -11.87,-2.13 -16.37,-6.37 -4.49,-4.26 -6.73,-9.6 -6.73,-15.99l0 -25.93c0,-6.4 2.24,-11.73 6.73,-15.99 4.49,-4.24 9.95,-6.37 16.37,-6.37l54.71 0 0 16.5 -54.71 0c-4.4,0 -6.6,1.97 -6.6,5.89l0 25.89c0,3.92 2.2,5.89 6.6,5.89l38.22 0 0 -10.59 -22.41 0 0 -16.5 38.91 0 0 43.58zm23.37 0l-16.5 0 0 -70.66 16.5 0 0 70.66zm85.23 -54.16l-31.9 0 0 54.16 -16.5 0 0 -54.16 -31.9 0 0 -16.5 80.29 0 0 16.5zm93.61 54.16l-16.5 0 0 -22.4 -43.44 0 0 -16.5 43.44 0 0 -9.9c0,-3.58 -1.19,-5.36 -3.57,-5.36l-46.75 0c-2.29,0 -3.44,1.79 -3.44,5.33l0 48.83 -16.5 0 0 -48.85c0,-5.94 1.86,-11.07 5.57,-15.37 3.72,-4.29 8.5,-6.44 14.37,-6.44l46.75 0c5.96,0 10.79,2.15 14.5,6.44 3.72,4.3 5.57,9.43 5.57,15.37l0 48.85zm77.68 0l-70.8 0 0 -70.66 16.5 0 0 54.16 54.3 0 0 16.5z"/>
  </g>
 </g>
</svg>
