<?xml version="1.0" encoding="UTF-8"?>
<!DOCTYPE svg PUBLIC "-//W3C//DTD SVG 1.1//EN" "http://www.w3.org/Graphics/SVG/1.1/DTD/svg11.dtd">
<!-- Creator: CorelDRAW 2018 (64 Bit Versão de avaliação) -->
<svg xmlns="http://www.w3.org/2000/svg" xml:space="preserve" width="4.064mm" height="0.8766mm" version="1.1" style="shape-rendering:geometricPrecision; text-rendering:geometricPrecision; image-rendering:optimizeQuality; fill-rule:evenodd; clip-rule:evenodd"
viewBox="0 0 412.1 88.89"
 xmlns:xlink="http://www.w3.org/1999/xlink">
 <defs>
  <style type="text/css">
   <![CDATA[
    .fil0 {fill:#FEFEFE;fill-rule:nonzero}
   ]]>
  </style>
 </defs>
 <g id="Camada_x0020_1">
  <metadata id="CorelCorpID_0Corel-Layer"/>
  <g id="_2102472388304">
   <path class="fil0" d="M67.17 38.89c0,4.73 -1.42,8.75 -4.27,12.11 -3.06,3.48 -6.93,5.23 -11.59,5.23l-48.57 0 0 -13.13 48.57 0c1.83,0 2.73,-1.4 2.73,-4.21 0,-2.81 -0.9,-4.21 -2.73,-4.21l-35.34 0c-4.66,0 -8.53,-1.75 -11.6,-5.25 -2.91,-3.29 -4.37,-7.29 -4.37,-12.04 0,-4.74 1.49,-8.82 4.48,-12.25 2.99,-3.43 6.82,-5.14 11.49,-5.14l48.57 0 0 13.13 -48.68 0c-1.83,0 -2.73,1.42 -2.73,4.26 0,2.78 0.9,4.16 2.73,4.16l35.41 0c4.68,0 8.55,1.75 11.63,5.23 2.85,3.34 4.27,7.38 4.27,12.11zm75.92 -19.85c0,5.03 -1.38,9.34 -4.16,12.91 -2.99,4.02 -6.93,6.01 -11.81,6.01l-41.35 0 0 18.27 -13.12 0 0 -56.23 54.47 0c4.89,0 8.82,2.01 11.81,6.01 2.78,3.65 4.16,7.99 4.16,13.02zm-13.12 0c0,-3.93 -0.95,-5.9 -2.85,-5.9l-41.35 0 0 11.7 41.35 0c1.9,0 2.85,-1.94 2.85,-5.8zm87.62 37.19l-13.12 0 0 -17.83 -34.58 0 0 -13.13 34.58 0 0 -7.88c0,-2.84 -0.95,-4.26 -2.85,-4.26l-37.19 0c-1.83,0 -2.74,1.42 -2.74,4.24l0 38.86 -13.12 0 0 -38.87c0,-4.73 1.47,-8.81 4.43,-12.24 2.95,-3.41 6.76,-5.12 11.43,-5.12l37.19 0c4.75,0 8.59,1.71 11.54,5.12 2.96,3.43 4.43,7.51 4.43,12.24l0 38.87zm67.39 0l-43.54 0c-5.1,0 -9.44,-1.69 -13.02,-5.07 -3.57,-3.39 -5.35,-7.64 -5.35,-12.73l0 -20.64c0,-5.09 1.78,-9.34 5.35,-12.73 3.58,-3.38 7.92,-5.07 13.02,-5.07l43.54 0 0 13.13 -43.54 0c-3.5,0 -5.25,1.56 -5.25,4.68l0 20.59c0,3.12 1.75,4.68 5.25,4.68l43.54 0 0 13.13zm65.53 -43.1l-46.93 0 0 8.42 43.87 0 0 13.13 -43.87 0 0 8.42 46.82 0 0 13.13 -59.95 0 0 -56.23 60.06 0 0 13.13zm61.59 -13.13l-0.22 12.89 -32.27 43.34 -17.73 0 33.58 -43.1 -42.56 0 0 -13.13 59.19 0z"/>
   <path class="fil0" d="M268.05 81.37c0,2.15 -0.75,3.94 -2.24,5.38 -1.5,1.42 -3.33,2.14 -5.49,2.14l-18.35 0 0 -14.99 5.55 0 0 9.44 12.85 0c1.43,0 2.14,-0.67 2.14,-1.99l0 -8.71c0,-1.32 -0.71,-1.98 -2.14,-1.98l-18.39 0 0 -5.55 18.35 0c2.16,0 3.99,0.71 5.49,2.14 1.49,1.43 2.24,3.22 2.24,5.38l0 8.72zm7.87 7.52l-5.56 0 0 -23.77 5.56 0 0 23.77zm28.48 0l-18.4 0c-2.16,0 -4,-0.72 -5.51,-2.14 -1.51,-1.44 -2.26,-3.23 -2.26,-5.38l0 -8.72c0,-2.16 0.75,-3.95 2.26,-5.38 1.51,-1.43 3.35,-2.14 5.51,-2.14l18.4 0 0 5.55 -18.4 0c-1.48,0 -2.22,0.66 -2.22,1.98l0 8.71c0,1.32 0.74,1.99 2.22,1.99l12.86 0 0 -3.57 -7.54 0 0 -5.55 13.09 0 0 14.66zm7.87 0l-5.56 0 0 -23.77 5.56 0 0 23.77zm28.68 -18.22l-10.74 0 0 18.22 -5.55 0 0 -18.22 -10.73 0 0 -5.55 27.01 0 0 5.55zm31.5 18.22l-5.56 0 0 -7.53 -14.61 0 0 -5.56 14.61 0 0 -3.33c0,-1.21 -0.4,-1.8 -1.2,-1.8l-15.73 0c-0.77,0 -1.16,0.6 -1.16,1.79l0 16.43 -5.55 0 0 -16.44c0,-2 0.62,-3.72 1.87,-5.17 1.26,-1.44 2.86,-2.16 4.84,-2.16l15.73 0c2.01,0 3.63,0.72 4.88,2.16 1.25,1.45 1.88,3.17 1.88,5.17l0 16.44zm26.13 0l-23.82 0 0 -23.77 5.55 0 0 18.22 18.27 0 0 5.55z"/>
  </g>
 </g>
</svg>
