<?xml version="1.0" encoding="utf-8"?>
<!-- Generator: Adobe Illustrator 27.3.1, SVG Export Plug-In . SVG Version: 6.00 Build 0)  -->
<svg version="1.1" id="Camada_1" xmlns="http://www.w3.org/2000/svg" xmlns:xlink="http://www.w3.org/1999/xlink" x="0px" y="0px"
	 viewBox="0 0 1125 2436" style="enable-background:new 0 0 1125 2436;" xml:space="preserve">
<style type="text/css">
	.st0{fill:#0F2137;}
	.st1{fill:url(#SVGID_1_);}
</style>
<rect class="st0" width="1125" height="2437"/>
<linearGradient id="SVGID_1_" gradientUnits="userSpaceOnUse" x1="565.5309" y1="2374.5637" x2="538.5044" y2="1093.5076">
	<stop  offset="0" style="stop-color:#FFFFFF"/>
	<stop  offset="1" style="stop-color:#4BD1EF;stop-opacity:0.1"/>
</linearGradient>
<path class="st1" d="M1124.5,2025.3c-57.47-19.2-75.47,40.2-75.47,40.2c-80.96-41-145.94,14-145.94,14c-3-119-156.67-30-156.67-30
	c-15.74-54-78.22-70-78.22-70c-107.95-43-137.9,70-137.9,70c-67.93-54-126.98,0-126.98,0c-77.97-114-126.94-13-126.94-13
	c-23.99-78-134.94-36-134.94-36c11-17-42.98-21-42.98-21C63.47,1906.5,0,1941.51,0,1941.51l0.5,494.99H1125L1124.5,2025.3z"/>
</svg>
